<svg id="Layer_3" data-name="Layer 3" xmlns="http://www.w3.org/2000/svg" viewBox="0 0 420.03 410.16"><defs><style>.cls-1{fill:#f8f7f3;}.cls-2{fill:#202833;}.cls-3{fill:#34f5c6;}</style></defs><ellipse class="cls-1" cx="210.02" cy="205.08" rx="210.02" ry="205.08"/><path class="cls-2" d="M131.83,155.08v100a25,25,0,0,1-50,0v-100a25,25,0,0,1,50,0Z"/><path class="cls-2" d="M321.83,205.08v100a25,25,0,0,1-50,0v-25a25,25,0,1,0-50,0v50a25,25,0,0,1-50,0v-250a25,25,0,0,1,50,0v125a25,25,0,1,0,50,0,25,25,0,1,1,50,0Z"/><circle class="cls-3" cx="296.83" cy="130.08" r="25"/></svg>